<svg width="149" height="60" viewBox="0 0 149 60" fill="none" xmlns="http://www.w3.org/2000/svg">
<g clip-path="url(#clip0_3007_11353)">
<g clip-path="url(#clip1_3007_11353)">
<path d="M38.4156 4.70455L28.3348 6.79545L28.2883 39.1591C28.2883 45.1364 32.898 49 39.0209 49C42.42 49 44.9111 48.3864 46.2847 47.6591V39.9773C44.9576 40.5 38.4389 42.3636 38.4389 36.4091V22.0455H46.2847V13.4545H38.4389L38.4156 4.70455ZM59.1592 16.4318L58.5306 13.4545H49.5906V48.2727H59.9042V24.8409C62.3487 21.7045 66.4695 22.3182 67.7966 22.7273V13.4545C66.3997 12.9773 61.5805 12.0909 59.1592 16.4318ZM80.6478 0L70.2644 2.15909V10.3864L80.6478 8.22727V0ZM10.4548 23.7045C10.4548 22.1364 11.8052 21.5227 13.9703 21.5C17.1133 21.5 21.1177 22.4318 24.2606 24.0909V14.5909C20.8383 13.2727 17.4159 12.75 13.9936 12.75C5.61234 12.75 0.0248413 17.0227 0.0248413 24.1591C0.0248413 35.3409 15.7397 33.5227 15.7397 38.3409C15.7397 40.2046 14.0867 40.8182 11.7819 40.8182C8.35953 40.8182 3.93609 39.4318 0.467185 37.5909V46.6818C4.30859 48.2955 8.19656 48.9773 11.7586 48.9773C20.3494 48.9773 26.2628 45.3864 26.2628 38.1136C26.2628 26.0909 10.4548 28.25 10.4548 23.7045ZM149.002 31.2727C149.002 20.9318 143.88 12.7727 134.055 12.7727C124.23 12.7727 118.247 20.9318 118.247 31.2045C118.247 43.3636 125.301 48.9773 135.359 48.9773C140.294 48.9773 143.996 47.8864 146.813 46.3636V38.7727C143.996 40.1591 140.76 41 136.662 41C132.635 41 129.096 39.6136 128.63 34.8864H148.862C148.908 34.3636 149.002 32.25 149.002 31.2727ZM128.537 27.4545C128.537 22.9091 131.401 21 133.985 21C136.523 21 139.223 22.9091 139.223 27.4545H128.537ZM102.253 12.7727C98.2019 12.7727 95.5944 14.6364 94.1509 15.9318L93.6155 13.4318H84.5125V59.9773L94.8494 57.8409L94.8726 46.4318C96.3626 47.5 98.5744 48.9773 102.183 48.9773C109.586 48.9773 116.338 43.7045 116.338 30.8864C116.361 19.1591 109.517 12.7727 102.253 12.7727ZM99.785 40.6136C97.3637 40.6136 95.9203 39.75 94.9192 38.7045L94.8494 23.7045C95.9203 22.5455 97.4103 21.7045 99.785 21.7045C103.557 21.7045 106.164 25.8409 106.164 31.1136C106.187 36.5455 103.626 40.6136 99.785 40.6136ZM70.2876 48.2727H80.6711V13.4545H70.2876V48.2727Z" fill="#737373"/>
</g>
</g>
<defs>
<clipPath id="clip0_3007_11353">
<rect width="149" height="60" fill="white"/>
</clipPath>
<clipPath id="clip1_3007_11353">
<rect width="149" height="60" fill="white"/>
</clipPath>
</defs>
</svg>
